<svg xmlns="http://www.w3.org/2000/svg" viewBox="0 0 512 512">
<defs><radialGradient id="c"><stop offset="0" stop-color="#fff4d6"/><stop offset=".35" stop-color="#ffd27a" stop-opacity=".8"/><stop offset="1" stop-color="#ffd27a" stop-opacity="0"/></radialGradient></defs>
<rect width="512" height="512" fill="#05070d"/>
<g filter="none"><circle cx="278.0" cy="256.0" r="9.0" fill="#9fb8ff" opacity="0.95"/><circle cx="280.5" cy="257.3" r="8.9" fill="#9fb8ff" opacity="0.94"/><circle cx="282.9" cy="258.9" r="8.8" fill="#9fb8ff" opacity="0.93"/><circle cx="285.2" cy="260.7" r="8.7" fill="#9fb8ff" opacity="0.92"/><circle cx="287.3" cy="262.8" r="8.6" fill="#9fb8ff" opacity="0.91"/><circle cx="289.3" cy="265.1" r="8.5" fill="#9fb8ff" opacity="0.90"/><circle cx="291.0" cy="267.6" r="8.4" fill="#9fb8ff" opacity="0.89"/><circle cx="292.6" cy="270.4" r="8.3" fill="#9fb8ff" opacity="0.88"/><circle cx="293.9" cy="273.3" r="8.2" fill="#9fb8ff" opacity="0.87"/><circle cx="295.0" cy="276.5" r="8.1" fill="#9fb8ff" opacity="0.86"/><circle cx="295.8" cy="279.8" r="8.0" fill="#9fb8ff" opacity="0.85"/><circle cx="296.3" cy="283.2" r="7.9" fill="#9fb8ff" opacity="0.84"/><circle cx="296.4" cy="286.8" r="7.8" fill="#9fb8ff" opacity="0.83"/><circle cx="296.3" cy="290.5" r="7.7" fill="#9fb8ff" opacity="0.82"/><circle cx="295.8" cy="294.3" r="7.6" fill="#9fb8ff" opacity="0.81"/><circle cx="295.0" cy="298.1" r="7.5" fill="#9fb8ff" opacity="0.80"/><circle cx="293.9" cy="301.9" r="7.4" fill="#9fb8ff" opacity="0.79"/><circle cx="292.3" cy="305.8" r="7.3" fill="#9fb8ff" opacity="0.78"/><circle cx="290.5" cy="309.7" r="7.2" fill="#9fb8ff" opacity="0.77"/><circle cx="288.2" cy="313.5" r="7.1" fill="#9fb8ff" opacity="0.76"/><circle cx="285.6" cy="317.2" r="7.0" fill="#9fb8ff" opacity="0.75"/><circle cx="282.6" cy="320.9" r="6.9" fill="#9fb8ff" opacity="0.74"/><circle cx="279.3" cy="324.4" r="6.8" fill="#9fb8ff" opacity="0.73"/><circle cx="275.5" cy="327.8" r="6.7" fill="#9fb8ff" opacity="0.72"/><circle cx="271.5" cy="331.0" r="6.6" fill="#9fb8ff" opacity="0.71"/><circle cx="267.1" cy="334.0" r="6.5" fill="#9fb8ff" opacity="0.70"/><circle cx="262.4" cy="336.8" r="6.4" fill="#9fb8ff" opacity="0.69"/><circle cx="257.3" cy="339.4" r="6.3" fill="#9fb8ff" opacity="0.68"/><circle cx="252.0" cy="341.7" r="6.2" fill="#9fb8ff" opacity="0.67"/><circle cx="246.4" cy="343.6" r="6.1" fill="#9fb8ff" opacity="0.66"/><circle cx="240.5" cy="345.3" r="5.9" fill="#9fb8ff" opacity="0.64"/><circle cx="234.4" cy="346.6" r="5.8" fill="#9fb8ff" opacity="0.63"/><circle cx="228.1" cy="347.6" r="5.7" fill="#9fb8ff" opacity="0.62"/><circle cx="221.6" cy="348.1" r="5.6" fill="#9fb8ff" opacity="0.61"/><circle cx="214.9" cy="348.3" r="5.5" fill="#9fb8ff" opacity="0.60"/><circle cx="208.1" cy="348.1" r="5.4" fill="#9fb8ff" opacity="0.59"/><circle cx="201.2" cy="347.5" r="5.3" fill="#9fb8ff" opacity="0.58"/><circle cx="194.2" cy="346.4" r="5.2" fill="#9fb8ff" opacity="0.57"/><circle cx="187.2" cy="344.9" r="5.1" fill="#9fb8ff" opacity="0.56"/><circle cx="180.1" cy="342.9" r="5.0" fill="#9fb8ff" opacity="0.55"/><circle cx="173.1" cy="340.5" r="4.9" fill="#9fb8ff" opacity="0.54"/><circle cx="166.2" cy="337.6" r="4.8" fill="#9fb8ff" opacity="0.53"/><circle cx="159.3" cy="334.2" r="4.7" fill="#9fb8ff" opacity="0.52"/><circle cx="152.5" cy="330.4" r="4.6" fill="#9fb8ff" opacity="0.51"/><circle cx="146.0" cy="326.1" r="4.5" fill="#9fb8ff" opacity="0.50"/><circle cx="139.6" cy="321.4" r="4.4" fill="#9fb8ff" opacity="0.49"/><circle cx="133.4" cy="316.2" r="4.3" fill="#9fb8ff" opacity="0.48"/><circle cx="127.6" cy="310.6" r="4.2" fill="#9fb8ff" opacity="0.47"/><circle cx="122.0" cy="304.6" r="4.1" fill="#9fb8ff" opacity="0.46"/><circle cx="116.8" cy="298.1" r="4.0" fill="#9fb8ff" opacity="0.45"/><circle cx="111.9" cy="291.3" r="3.9" fill="#9fb8ff" opacity="0.44"/><circle cx="107.4" cy="284.1" r="3.8" fill="#9fb8ff" opacity="0.43"/><circle cx="103.4" cy="276.5" r="3.7" fill="#9fb8ff" opacity="0.42"/><circle cx="99.9" cy="268.6" r="3.6" fill="#9fb8ff" opacity="0.41"/><circle cx="96.8" cy="260.4" r="3.5" fill="#9fb8ff" opacity="0.40"/><circle cx="94.2" cy="251.8" r="3.4" fill="#9fb8ff" opacity="0.39"/><circle cx="92.2" cy="243.1" r="3.3" fill="#9fb8ff" opacity="0.38"/><circle cx="90.8" cy="234.1" r="3.2" fill="#9fb8ff" opacity="0.37"/><circle cx="89.9" cy="224.9" r="3.1" fill="#9fb8ff" opacity="0.36"/><circle cx="89.7" cy="215.6" r="3.0" fill="#9fb8ff" opacity="0.35"/><circle cx="234.0" cy="256.0" r="9.0" fill="#9fb8ff" opacity="0.95"/><circle cx="231.5" cy="254.7" r="8.9" fill="#9fb8ff" opacity="0.94"/><circle cx="229.1" cy="253.1" r="8.8" fill="#9fb8ff" opacity="0.93"/><circle cx="226.8" cy="251.3" r="8.7" fill="#9fb8ff" opacity="0.92"/><circle cx="224.7" cy="249.2" r="8.6" fill="#9fb8ff" opacity="0.91"/><circle cx="222.7" cy="246.9" r="8.5" fill="#9fb8ff" opacity="0.90"/><circle cx="221.0" cy="244.4" r="8.4" fill="#9fb8ff" opacity="0.89"/><circle cx="219.4" cy="241.6" r="8.3" fill="#9fb8ff" opacity="0.88"/><circle cx="218.1" cy="238.7" r="8.2" fill="#9fb8ff" opacity="0.87"/><circle cx="217.0" cy="235.5" r="8.1" fill="#9fb8ff" opacity="0.86"/><circle cx="216.2" cy="232.2" r="8.0" fill="#9fb8ff" opacity="0.85"/><circle cx="215.7" cy="228.8" r="7.9" fill="#9fb8ff" opacity="0.84"/><circle cx="215.6" cy="225.2" r="7.8" fill="#9fb8ff" opacity="0.83"/><circle cx="215.7" cy="221.5" r="7.7" fill="#9fb8ff" opacity="0.82"/><circle cx="216.2" cy="217.7" r="7.6" fill="#9fb8ff" opacity="0.81"/><circle cx="217.0" cy="213.9" r="7.5" fill="#9fb8ff" opacity="0.80"/><circle cx="218.1" cy="210.1" r="7.4" fill="#9fb8ff" opacity="0.79"/><circle cx="219.7" cy="206.2" r="7.3" fill="#9fb8ff" opacity="0.78"/><circle cx="221.5" cy="202.3" r="7.2" fill="#9fb8ff" opacity="0.77"/><circle cx="223.8" cy="198.5" r="7.1" fill="#9fb8ff" opacity="0.76"/><circle cx="226.4" cy="194.8" r="7.0" fill="#9fb8ff" opacity="0.75"/><circle cx="229.4" cy="191.1" r="6.9" fill="#9fb8ff" opacity="0.74"/><circle cx="232.7" cy="187.6" r="6.8" fill="#9fb8ff" opacity="0.73"/><circle cx="236.5" cy="184.2" r="6.7" fill="#9fb8ff" opacity="0.72"/><circle cx="240.5" cy="181.0" r="6.6" fill="#9fb8ff" opacity="0.71"/><circle cx="244.9" cy="178.0" r="6.5" fill="#9fb8ff" opacity="0.70"/><circle cx="249.6" cy="175.2" r="6.4" fill="#9fb8ff" opacity="0.69"/><circle cx="254.7" cy="172.6" r="6.3" fill="#9fb8ff" opacity="0.68"/><circle cx="260.0" cy="170.3" r="6.2" fill="#9fb8ff" opacity="0.67"/><circle cx="265.6" cy="168.4" r="6.1" fill="#9fb8ff" opacity="0.66"/><circle cx="271.5" cy="166.7" r="5.9" fill="#9fb8ff" opacity="0.64"/><circle cx="277.6" cy="165.4" r="5.8" fill="#9fb8ff" opacity="0.63"/><circle cx="283.9" cy="164.4" r="5.7" fill="#9fb8ff" opacity="0.62"/><circle cx="290.4" cy="163.9" r="5.6" fill="#9fb8ff" opacity="0.61"/><circle cx="297.1" cy="163.7" r="5.5" fill="#9fb8ff" opacity="0.60"/><circle cx="303.9" cy="163.9" r="5.4" fill="#9fb8ff" opacity="0.59"/><circle cx="310.8" cy="164.5" r="5.3" fill="#9fb8ff" opacity="0.58"/><circle cx="317.8" cy="165.6" r="5.2" fill="#9fb8ff" opacity="0.57"/><circle cx="324.8" cy="167.1" r="5.1" fill="#9fb8ff" opacity="0.56"/><circle cx="331.9" cy="169.1" r="5.0" fill="#9fb8ff" opacity="0.55"/><circle cx="338.9" cy="171.5" r="4.9" fill="#9fb8ff" opacity="0.54"/><circle cx="345.8" cy="174.4" r="4.8" fill="#9fb8ff" opacity="0.53"/><circle cx="352.7" cy="177.8" r="4.7" fill="#9fb8ff" opacity="0.52"/><circle cx="359.5" cy="181.6" r="4.6" fill="#9fb8ff" opacity="0.51"/><circle cx="366.0" cy="185.9" r="4.5" fill="#9fb8ff" opacity="0.50"/><circle cx="372.4" cy="190.6" r="4.4" fill="#9fb8ff" opacity="0.49"/><circle cx="378.6" cy="195.8" r="4.3" fill="#9fb8ff" opacity="0.48"/><circle cx="384.4" cy="201.4" r="4.2" fill="#9fb8ff" opacity="0.47"/><circle cx="390.0" cy="207.4" r="4.1" fill="#9fb8ff" opacity="0.46"/><circle cx="395.2" cy="213.9" r="4.0" fill="#9fb8ff" opacity="0.45"/><circle cx="400.1" cy="220.7" r="3.9" fill="#9fb8ff" opacity="0.44"/><circle cx="404.6" cy="227.9" r="3.8" fill="#9fb8ff" opacity="0.43"/><circle cx="408.6" cy="235.5" r="3.7" fill="#9fb8ff" opacity="0.42"/><circle cx="412.1" cy="243.4" r="3.6" fill="#9fb8ff" opacity="0.41"/><circle cx="415.2" cy="251.6" r="3.5" fill="#9fb8ff" opacity="0.40"/><circle cx="417.8" cy="260.2" r="3.4" fill="#9fb8ff" opacity="0.39"/><circle cx="419.8" cy="268.9" r="3.3" fill="#9fb8ff" opacity="0.38"/><circle cx="421.2" cy="277.9" r="3.2" fill="#9fb8ff" opacity="0.37"/><circle cx="422.1" cy="287.1" r="3.1" fill="#9fb8ff" opacity="0.36"/><circle cx="422.3" cy="296.4" r="3.0" fill="#9fb8ff" opacity="0.35"/></g>
<circle cx="256" cy="256" r="70" fill="url(#c)"/>
<circle cx="350" cy="318" r="9" fill="#ffe680"/>
</svg>